HIERARCHY
ROOT hip
{
  OFFSET -6.06208 83.6746 38.2136
  CHANNELS 6 Xposition Yposition Zposition Zrotation Xrotation Yrotation
  JOINT abdomen
  {
    OFFSET 0 20.6881 -0.73152
    CHANNELS 3 Zrotation Xrotation Yrotation
    JOINT chest
    {
      OFFSET 0 11.7043 -0.48768
      CHANNELS 3 Zrotation Xrotation Yrotation
      JOINT neck
      {
        OFFSET 0 22.1894 -2.19456
        CHANNELS 3 Zrotation Xrotation Yrotation
        JOINT head
        {
          OFFSET -0.24384 7.07133 1.2192
          CHANNELS 3 Zrotation Xrotation Yrotation
          JOINT leftEye
          {
            OFFSET 4.14528 8.04674 8.04672
            CHANNELS 3 Zrotation Xrotation Yrotation
            End Site
            {
              OFFSET 1 0 0
            }
          }
          JOINT rightEye
          {
            OFFSET -3.6576 8.04674 8.04672
            CHANNELS 3 Zrotation Xrotation Yrotation
            End Site
            {
              OFFSET 1 0 0
            }
          }
        }
      }
      JOINT rCollar
      {
        OFFSET -2.68224 19.2634 -4.8768
        CHANNELS 3 Zrotation Xrotation Yrotation
        JOINT rShldr
        {
          OFFSET -8.77824 -1.95073 1.46304
          CHANNELS 3 Zrotation Xrotation Yrotation
          JOINT rForeArm
          {
            OFFSET -28.1742 -1.7115 0.48768
            CHANNELS 3 Zrotation Xrotation Yrotation
            JOINT rHand
            {
              OFFSET -22.5879 0.773209 7.07136
              CHANNELS 3 Zrotation Xrotation Yrotation
              JOINT rThumb1
              {
                OFFSET -1.2192 -0.487915 3.41376
                CHANNELS 3 Zrotation Xrotation Yrotation
                JOINT rThumb2
                {
                  OFFSET -3.37035 -0.52449 3.41376
                  CHANNELS 3 Zrotation Xrotation Yrotation
                  End Site
                  {
                    OFFSET -1.78271 -1.18214 1.43049
                  }
                }
              }
              JOINT rIndex1
              {
                OFFSET -7.75947 0.938293 5.60832
                CHANNELS 3 Zrotation Xrotation Yrotation
                JOINT rIndex2
                {
                  OFFSET -2.54057 -0.884171 1.56538
                  CHANNELS 3 Zrotation Xrotation Yrotation
                  End Site
                  {
                    OFFSET -1.62519 -0.234802 1.16502
                  }
                }
              }
              JOINT rMid1
              {
                OFFSET -8.24714 1.18213 3.41376
                CHANNELS 3 Zrotation Xrotation Yrotation
                JOINT rMid2
                {
                  OFFSET -3.10165 -0.590103 1.0647
                  CHANNELS 3 Zrotation Xrotation Yrotation
                  End Site
                  {
                    OFFSET -2.48547 -0.328903 0.83742
                  }
                }
              }
              JOINT rRing1
              {
                OFFSET -8.82822 0.546677 1.51678
                CHANNELS 3 Zrotation Xrotation Yrotation
                JOINT rRing2
                {
                  OFFSET -2.60934 -0.819778 -0.0198488
                  CHANNELS 3 Zrotation Xrotation Yrotation
                  End Site
                  {
                    OFFSET -2.33842 -0.294052 0.168128
                  }
                }
              }
              JOINT rPinky1
              {
                OFFSET -8.27202 -0.0477905 -0.4584
                CHANNELS 3 Zrotation Xrotation Yrotation
                JOINT rPinky2
                {
                  OFFSET -1.82734 -0.647385 -0.700984
                  CHANNELS 3 Zrotation Xrotation Yrotation
                  End Site
                  {
                    OFFSET -1.69225 -0.51767 -0.607171
                  }
                }
              }
            }
          }
        }
      }
      JOINT lCollar
      {
        OFFSET 2.68224 19.2634 -4.8768
        CHANNELS 3 Zrotation Xrotation Yrotation
        JOINT lShldr
        {
          OFFSET 8.77824 -1.95073 1.46304
          CHANNELS 3 Zrotation Xrotation Yrotation
          JOINT lForeArm
          {
            OFFSET 28.1742 -1.7115 0.48768
            CHANNELS 3 Zrotation Xrotation Yrotation
            JOINT lHand
            {
              OFFSET 22.5879 0.773209 7.07136
              CHANNELS 3 Zrotation Xrotation Yrotation
              JOINT lThumb1
              {
                OFFSET 1.2192 -0.487915 3.41376
                CHANNELS 3 Zrotation Xrotation Yrotation
                JOINT lThumb2
                {
                  OFFSET 3.37035 -0.52449 3.41376
                  CHANNELS 3 Zrotation Xrotation Yrotation
                  End Site
                  {
                    OFFSET 1.78271 -1.18214 1.43049
                  }
                }
              }
              JOINT lIndex1
              {
                OFFSET 7.75947 0.938293 5.60832
                CHANNELS 3 Zrotation Xrotation Yrotation
                JOINT lIndex2
                {
                  OFFSET 2.54057 -0.884171 1.56538
                  CHANNELS 3 Zrotation Xrotation Yrotation
                  End Site
                  {
                    OFFSET 1.62519 -0.234802 1.16502
                  }
                }
              }
              JOINT lMid1
              {
                OFFSET 8.24714 1.18213 3.41376
                CHANNELS 3 Zrotation Xrotation Yrotation
                JOINT lMid2
                {
                  OFFSET 3.10165 -0.590103 1.0647
                  CHANNELS 3 Zrotation Xrotation Yrotation
                  End Site
                  {
                    OFFSET 2.48547 -0.328903 0.83742
                  }
                }
              }
              JOINT lRing1
              {
                OFFSET 8.82822 0.546677 1.51678
                CHANNELS 3 Zrotation Xrotation Yrotation
                JOINT lRing2
                {
                  OFFSET 2.60934 -0.819778 -0.0198488
                  CHANNELS 3 Zrotation Xrotation Yrotation
                  End Site
                  {
                    OFFSET 2.33842 -0.294052 0.168128
                  }
                }
              }
              JOINT lPinky1
              {
                OFFSET 8.27202 -0.0477905 -0.4584
                CHANNELS 3 Zrotation Xrotation Yrotation
                JOINT lPinky2
                {
                  OFFSET 1.82734 -0.647385 -0.700984
                  CHANNELS 3 Zrotation Xrotation Yrotation
                  End Site
                  {
                    OFFSET 1.69225 -0.51767 -0.607171
                  }
                }
              }
            }
          }
        }
      }
    }
  }
  JOINT rButtock
  {
    OFFSET -8.77824 4.35084 1.2192
    CHANNELS 3 Zrotation Xrotation Yrotation
    JOINT rThigh
    {
      OFFSET 0 -1.70687 -2.19456
      CHANNELS 3 Zrotation Xrotation Yrotation
      JOINT rShin
      {
        OFFSET 0 -36.8199 0.73152
        CHANNELS 3 Zrotation Xrotation Yrotation
        JOINT rFoot
        {
          OFFSET 0.73152 -45.1104 -5.12064
          CHANNELS 3 Zrotation Xrotation Yrotation
          End Site
          {
            OFFSET -1.1221 -3.69964 12.103
          }
        }
      }
    }
  }
  JOINT lButtock
  {
    OFFSET 8.77824 4.35084 1.2192
    CHANNELS 3 Zrotation Xrotation Yrotation
    JOINT lThigh
    {
      OFFSET 0 -1.70687 -2.19456
      CHANNELS 3 Zrotation Xrotation Yrotation
      JOINT lShin
      {
        OFFSET 0 -36.8199 0.73152
        CHANNELS 3 Zrotation Xrotation Yrotation
        JOINT lFoot
        {
          OFFSET -0.73152 -45.1104 -5.12064
          CHANNELS 3 Zrotation Xrotation Yrotation
          End Site
          {
            OFFSET 1.1221 -3.69964 12.103
          }
        }
      }
    }
  }
}
MOTION
Frames:	7
Frame Time:	0.00833333
-6.04328 83.3022 30.731 -4.1011 1.16223 -2.38983 0.120058 19.2101 3.39101 -0.388265 -10.7317 0.937912 2.59867 10.5266 -3.22378 -0.990887 -42.1634 -7.38627 -0 0 0 -0 0 0 -4.02961e-014 7.65065e-014 -4.63071e-014 10.8045 -5.18639 33.6962 -17.5938 -54.9954 119.779 -0.982934 -26.9588 -4.0991 1.74792e-010 -6.58577e-011 -7.55235e-010 3.18102e-010 -1.08896e-010 -1.30408e-009 1.74798e-010 -6.58573e-011 -7.55242e-010 7.73091 5.47488 0.417314 1.74792e-010 -6.58587e-011 -7.55243e-010 2.90554 0.965183 0.102902 1.74805e-010 -6.58579e-011 -7.55241e-010 10.2786 0.731801 0.0259123 1.74788e-010 -6.5858e-011 -7.55237e-010 2.22167 -0.733487 -0.20892 -4.04085e-014 7.65073e-014 -4.66096e-014 -82.616 32.2635 15.5761 23.2365 -17.7348 -47.278 0.0394382 -5.65622 0.797552 6.65247e-010 1.03069e-009 -8.23951e-010 1.15646e-009 1.79081e-009 -1.42242e-009 6.65247e-010 1.03069e-009 -8.2394e-010 -7.73091 5.47488 -0.417314 6.65247e-010 1.03069e-009 -8.23951e-010 -2.90554 0.965183 -0.102902 6.65246e-010 1.03069e-009 -8.23952e-010 -10.2786 0.731801 -0.0259123 6.65253e-010 1.03069e-009 -8.23956e-010 -2.22167 -0.733487 0.20892 -2.03217e-016 0 -3.88251e-019 -21.423 -3.39895 -0.0186317 0.00150867 0.405945 0.0134819 0.607818 2.99648 -0.0361803 2.03217e-016 0 3.88251e-019 12.6245 -16.1397 -0.242403 0.129983 28.8075 -0.684787 2.59207 -15.3742 9.932 
-6.03727 83.2767 30.793 -4.13806 1.26829 -2.42365 0.209327 19.0622 3.47831 -0.530404 -10.8881 0.95441 2.59634 10.4894 -3.26838 -0.99884 -42.4114 -7.49232 -0 0 0 -0 0 0 -2.13535e-014 8.11034e-014 -4.91495e-014 10.7767 -5.62949 33.6444 -17.6499 -54.961 119.655 -0.985587 -26.9916 -4.10493 1.42338e-010 -6.04433e-011 -6.58206e-010 2.60223e-010 -1.00216e-010 -1.13679e-009 1.42345e-010 -6.04425e-011 -6.58216e-010 7.73091 5.47488 0.417314 1.42339e-010 -6.04433e-011 -6.58216e-010 2.90554 0.965183 0.102902 1.42351e-010 -6.04424e-011 -6.58213e-010 10.2786 0.731801 0.0259123 1.42334e-010 -6.04425e-011 -6.58209e-010 2.22167 -0.733487 -0.20892 -2.1486e-014 8.1104e-014 -4.9398e-014 -82.7107 32.2881 15.8269 23.2623 -17.7789 -47.3539 0.0386539 -5.60266 0.789947 5.88702e-010 9.88163e-010 -7.88984e-010 1.02407e-009 1.71716e-009 -1.36245e-009 5.88702e-010 9.88167e-010 -7.88975e-010 -7.73091 5.47488 -0.417314 5.88704e-010 9.88167e-010 -7.88984e-010 -2.90554 0.965183 -0.102902 5.887e-010 9.88167e-010 -7.88987e-010 -10.2786 0.731801 -0.0259123 5.88707e-010 9.88168e-010 -7.88991e-010 -2.22167 -0.733487 0.20892 -2.03217e-016 0 -3.88251e-019 -21.4191 -3.40972 -0.0187781 0.00157132 0.430291 0.0140612 0.609776 2.98274 -0.0366032 2.03217e-016 0 3.88251e-019 12.6378 -16.32 -0.232548 0.131683 28.9708 -0.689976 2.61811 -15.4132 9.98626 
-6.03712 83.2566 30.8664 -4.15427 1.35737 -2.41028 0.221524 18.9086 3.52091 -0.590359 -11.0103 0.961683 2.58816 10.4611 -3.30587 -1.02357 -42.6783 -7.58974 -0 0 0 -0 0 0 1.5553e-014 6.46664e-014 -3.70885e-014 10.7477 -6.02275 33.6164 -17.6879 -54.9376 119.57 -0.98118 -26.9371 -4.09525 -4.01082e-011 -8.05122e-012 -2.93992e-010 -6.28139e-011 -1.18193e-011 -5.10055e-010 -4.0102e-011 -8.05066e-012 -2.94005e-010 7.73091 5.47488 0.417314 -4.01081e-011 -8.05054e-012 -2.94e-010 2.90554 0.965183 0.102902 -4.00984e-011 -8.04977e-012 -2.93999e-010 10.2786 0.731801 0.0259123 -4.01121e-011 -8.04995e-012 -2.93993e-010 2.22167 -0.733487 -0.20892 1.54538e-014 6.46671e-014 -3.73331e-014 -82.79 32.2673 16.0261 23.2976 -17.8396 -47.4577 0.0369002 -5.47974 0.7725 2.63669e-010 5.75075e-010 -5.53496e-010 4.60625e-010 1.00046e-009 -9.56694e-010 2.63669e-010 5.75078e-010 -5.53487e-010 -7.73091 5.47488 -0.417314 2.63673e-010 5.75078e-010 -5.53497e-010 -2.90554 0.965183 -0.102902 2.63666e-010 5.75078e-010 -5.535e-010 -10.2786 0.731801 -0.0259123 2.63675e-010 5.75079e-010 -5.53505e-010 -2.22167 -0.733487 0.20892 -2.03217e-016 0 -3.88251e-019 -21.4164 -3.41766 -0.0188802 0.00161508 0.448162 0.0144667 0.611388 2.97264 -0.0369377 2.03217e-016 0 3.88251e-019 12.6597 -16.4505 -0.197912 0.133017 29.0864 -0.692787 2.60806 -15.4442 9.93908 
-6.03256 83.242 30.9388 -4.15861 1.44126 -2.36667 0.188386 18.7461 3.53715 -0.602491 -11.1138 0.963556 2.57282 10.447 -3.34139 -1.05204 -42.9593 -7.68382 -0 0 0 -0 0 0 6.71337e-014 3.34946e-014 -1.46883e-014 10.7189 -6.38364 33.5985 -17.7155 -54.9207 119.509 -0.972299 -26.8264 -4.07564 -3.30074e-010 7.65067e-011 2.60172e-010 -5.75847e-010 1.31093e-010 4.43261e-010 -3.30068e-010 7.65067e-011 2.60157e-010 7.73091 5.47488 0.417314 -3.30075e-010 7.65081e-011 2.60167e-010 2.90554 0.965183 0.102902 -3.3007e-010 7.65086e-011 2.60167e-010 10.2786 0.731801 0.0259123 -3.30077e-010 7.65082e-011 2.60175e-010 2.22167 -0.733487 -0.20892 6.71e-014 3.34956e-014 -1.49554e-014 -82.864 32.2223 16.2038 23.3425 -17.917 -47.5909 0.0345129 -5.30321 0.747464 -2.4115e-010 -9.64246e-011 -1.78511e-010 -4.14649e-010 -1.6461e-010 -3.10453e-010 -2.41151e-010 -9.64216e-011 -1.78503e-010 -7.73091 5.47488 -0.417314 -2.41146e-010 -9.64217e-011 -1.78514e-010 -2.90554 0.965183 -0.102902 -2.41155e-010 -9.6422e-011 -1.78516e-010 -10.2786 0.731801 -0.0259123 -2.41143e-010 -9.64211e-011 -1.78523e-010 -2.22167 -0.733487 0.20892 -2.03217e-016 0 -3.88251e-019 -21.4146 -3.42372 -0.0189527 0.00165051 0.462263 0.0147943 0.61283 2.96444 -0.0372274 2.03217e-016 0 3.88251e-019 12.6882 -16.5586 -0.146312 0.134127 29.174 -0.694157 2.57526 -15.4699 9.82829 
-6.03207 83.2265 30.9884 -4.15828 1.52477 -2.31101 0.135078 18.5893 3.53412 -0.588301 -11.1973 0.961436 2.54794 10.4057 -3.37022 -1.07814 -43.2502 -7.76423 -0 0 0 -0 0 0 1.1096e-013 -1.11991e-016 4.49556e-015 10.6853 -6.75863 33.5912 -17.7342 -54.9093 119.468 -0.962073 -26.6978 -4.05291 -6.00466e-010 1.58324e-010 8.15062e-010 -1.05525e-009 2.69389e-010 1.39828e-009 -6.00461e-010 1.58323e-010 8.15044e-010 7.73091 5.47488 0.417314 -6.00469e-010 1.58326e-010 8.1506e-010 2.90554 0.965183 0.102902 -6.00467e-010 1.58326e-010 8.15059e-010 10.2786 0.731801 0.0259123 -6.00469e-010 1.58326e-010 8.15069e-010 2.22167 -0.733487 -0.20892 1.10995e-013 -1.1126e-016 4.20282e-015 -82.926 32.1528 16.3455 23.3838 -17.9884 -47.7146 0.0321991 -5.12063 0.721592 -7.00761e-010 -7.11025e-010 2.04751e-010 -1.21188e-009 -1.23128e-009 3.50167e-010 -7.00763e-010 -7.11022e-010 2.04759e-010 -7.73091 5.47488 -0.417314 -7.00758e-010 -7.11023e-010 2.04745e-010 -2.90554 0.965183 -0.102902 -7.00768e-010 -7.11023e-010 2.04744e-010 -10.2786 0.731801 -0.0259123 -7.00753e-010 -7.11022e-010 2.04736e-010 -2.22167 -0.733487 0.20892 -2.03217e-016 0 -3.88251e-019 -21.4131 -3.42861 -0.0190078 0.00168454 0.474255 0.0151065 0.614153 2.95719 -0.0374899 2.03217e-016 0 3.88251e-019 12.717 -16.6584 -0.0952682 0.135091 29.2475 -0.695 2.53808 -15.4965 9.70487 
-6.04261 83.2078 31.026 -4.16036 1.61272 -2.26149 0.0868507 18.453 3.5189 -0.569275 -11.259 0.956732 2.51106 10.2959 -3.38761 -1.09547 -43.5467 -7.82042 -0 0 0 -0 0 0 1.24603e-013 -2.38534e-014 6.90777e-015 10.642 -7.19426 33.5959 -17.7453 -54.9025 119.443 -0.953523 -26.5893 -4.03379 -7.24191e-010 2.02493e-010 1.18145e-009 -1.2774e-009 3.43936e-010 2.03012e-009 -7.24186e-010 2.02493e-010 1.18143e-009 7.73091 5.47488 0.417314 -7.24194e-010 2.02496e-010 1.18145e-009 2.90554 0.965183 0.102902 -7.24195e-010 2.02496e-010 1.18145e-009 10.2786 0.731801 0.0259123 -7.24194e-010 2.02496e-010 1.18146e-009 2.22167 -0.733487 -0.20892 1.24681e-013 -2.38542e-014 6.60959e-015 -82.9697 32.0587 16.4369 23.4086 -18.0313 -47.7895 0.0305079 -4.97954 0.701613 -8.9017e-010 -9.53416e-010 4.6507e-010 -1.54119e-009 -1.65274e-009 7.99063e-010 -8.90174e-010 -9.53413e-010 4.6508e-010 -7.73091 5.47488 -0.417314 -8.90168e-010 -9.53415e-010 4.65064e-010 -2.90554 0.965183 -0.102902 -8.90178e-010 -9.53415e-010 4.65064e-010 -10.2786 0.731801 -0.0259123 -8.90162e-010 -9.53414e-010 4.65054e-010 -2.22167 -0.733487 0.20892 -2.03217e-016 0 -3.88251e-019 -21.4117 -3.43306 -0.0190577 0.00172396 0.485797 0.0154662 0.615409 2.94996 -0.037743 2.03217e-016 0 3.88251e-019 12.7398 -16.764 -0.0623245 0.135997 29.3209 -0.696236 2.51493 -15.53 9.6198 
-6.05534 83.1858 31.0643 -4.16273 1.71255 -2.21977 0.0439393 18.3467 3.48272 -0.538371 -11.2897 0.947751 2.45395 10.0826 -3.38615 -1.0981 -43.8526 -7.83566 -0 0 0 -0 0 0 8.64101e-014 -3.42255e-014 -2.21622e-014 10.58 -7.72147 33.6175 -17.7414 -54.9049 119.452 -0.94783 -26.5167 -4.02102 -6.14592e-010 1.89702e-010 1.30635e-009 -1.09178e-009 3.21955e-010 2.24897e-009 -6.14589e-010 1.89703e-010 1.30633e-009 7.73091 5.47488 0.417314 -6.14596e-010 1.89706e-010 1.30635e-009 2.90554 0.965183 0.102902 -6.14597e-010 1.89706e-010 1.30635e-009 10.2786 0.731801 0.0259123 -6.14596e-010 1.89707e-010 1.30636e-009 2.22167 -0.733487 -0.20892 8.6494e-014 -3.42301e-014 -2.24312e-014 -82.9919 31.9267 16.4566 23.4124 -18.0378 -47.8013 0.0295996 -4.90185 0.690616 -6.266e-010 -5.63405e-010 5.69849e-010 -1.08641e-009 -9.78349e-010 9.80259e-010 -6.26604e-010 -5.63403e-010 5.69861e-010 -7.73091 5.47488 -0.417314 -6.26598e-010 -5.63406e-010 5.69844e-010 -2.90554 0.965183 -0.102902 -6.26607e-010 -5.63406e-010 5.69844e-010 -10.2786 0.731801 -0.0259123 -6.26591e-010 -5.63404e-010 5.69835e-010 -2.22167 -0.733487 0.20892 -2.03217e-016 0 -3.88251e-019 -21.41 -3.43746 -0.0191121 0.00177685 0.498239 0.0159458 0.616533 2.9418 -0.0379874 2.03217e-016 0 3.88251e-019 12.7513 -16.89 -0.0506188 0.13692 29.4026 -0.698183 2.51063 -15.5768 9.58361 
